<svg xmlns="http://www.w3.org/2000/svg" width="0" height="0">
	<svg id="icon-info" viewBox="0 0 500 500">
		<path fill="#1a73fb" d="M327.333,396v-48.333c0-5.438-4.229-9.667-9.666-9.667h-29V183.333c0-5.438-4.229-9.667-9.667-9.667h-96.667
			c-5.438,0-9.667,4.229-9.667,9.667v48.333c0,5.438,4.229,9.667,9.667,9.667h29V338h-29c-5.438,0-9.667,4.229-9.667,9.667V396
			c0,5.438,4.229,9.667,9.667,9.667h135.333C323.104,405.667,327.333,401.438,327.333,396z M288.667,125.333V77
			c0-5.438-4.229-9.667-9.667-9.667h-58c-5.438,0-9.667,4.229-9.667,9.667v48.333c0,5.438,4.229,9.667,9.667,9.667h58
			C284.438,135,288.667,130.771,288.667,125.333z M482,251c0,128.083-103.917,232-232,232C121.917,483,18,379.083,18,251
			C18,122.917,121.917,19,250,19C378.083,19,482,122.917,482,251z"/>
	</svg>

	<svg id="icon-arcade" viewBox="0 0 500 500">
		<path fill="#1a73fb" d="M219.066,265.467v-30.933c0-4.35-3.383-7.734-7.733-7.734h-46.4v-46.4c0-4.35-3.384-7.733-7.733-7.733
			h-30.934c-4.35,0-7.733,3.383-7.733,7.733v46.4h-46.4c-4.35,0-7.733,3.384-7.733,7.734v30.933c0,4.351,3.384,7.733,7.733,7.733h46.4
			V319.6c0,4.351,3.383,7.733,7.733,7.733H157.2c4.35,0,7.733-3.383,7.733-7.733V273.2h46.4
			C215.684,273.2,219.066,269.817,219.066,265.467z M358.267,280.933c0-17.157-13.774-30.933-30.934-30.933
			c-17.158,0-30.933,13.775-30.933,30.933c0,17.159,13.774,30.935,30.933,30.935C344.492,311.867,358.267,298.092,358.267,280.933z
			 M420.133,219.066c0-17.158-13.774-30.933-30.933-30.933s-30.934,13.775-30.934,30.933c0,17.159,13.775,30.934,30.934,30.934
			S420.133,236.225,420.133,219.066z M482,250c0,68.392-55.342,123.733-123.733,123.733c-31.417,0-59.934-11.842-81.684-30.934
			h-53.167c-21.75,19.092-50.267,30.934-81.683,30.934C73.341,373.733,18,318.392,18,250s55.341-123.733,123.733-123.733h216.533
			C426.658,126.267,482,181.608,482,250z"/>
	</svg>

	<svg id="icon-sound-fx" viewBox="0 0 500 500">
		<path fill="#1a73fb" d="M389.765,409.767c-6.143,0-12.282-2.344-16.971-7.029c-9.372-9.371-9.372-24.567,0-33.94
			c65.503-65.503,65.503-172.085,0-237.588c-9.372-9.373-9.372-24.568,0-33.941c9.372-9.371,24.569-9.371,33.941,0
			C447.532,138.062,470,192.305,470,250.001c0,57.695-22.468,111.938-63.265,152.734C402.049,407.423,395.907,409.767,389.765,409.767
			L389.765,409.767L389.765,409.767z M304.51,364.511c-6.143,0-12.283-2.343-16.971-7.029c-9.373-9.373-9.373-24.566,0-33.939
			c40.55-40.55,40.55-106.528,0-147.078c-9.373-9.373-9.373-24.569,0-33.94c9.373-9.373,24.568-9.373,33.941,0
			c59.265,59.265,59.265,155.695,0,214.96C316.794,362.168,310.652,364.511,304.51,364.511z"/>
		<path fill="#1a73fb" d="M238.003,474.001c-4.164,0-8.256-1.625-11.317-4.688L103.373,346.001H46c-8.836,0-16-7.163-16-16v-160
			c0-8.836,7.164-16,16-16h57.373L226.686,30.688c4.578-4.578,11.459-5.945,17.438-3.469S254,35.529,254,42.001v416
			c0,6.472-3.898,12.306-9.877,14.782C242.145,473.603,240.064,474.001,238.003,474.001z"/>
	</svg>

	<svg id="icon-music" viewBox="0 0 500 500">
		<path fill="#1a73fb" d="M459.538,49.192V354.77c0,38.47-57.568,52.385-87.308,52.385s-87.308-13.915-87.308-52.385
			c0-38.471,57.568-52.385,87.308-52.385c18.008,0,36.015,3.273,52.385,10.641V166.512l-209.538,64.662v193.441
			c0,38.47-57.569,52.385-87.308,52.385c-29.739,0-87.309-13.915-87.309-52.385S98.03,372.23,127.77,372.23
			c18.007,0,36.014,3.274,52.385,10.641V119.039c0-11.46,7.639-21.555,18.553-25.102l227-69.846c2.455-0.818,4.911-1.092,7.639-1.092
			C447.807,23,459.538,34.732,459.538,49.192z"/>
	</svg>

	<svg id="icon-settings" viewBox="0 0 500 500">
		<path fill="#1a73fb" d="M324.333,250c0-40.941-33.392-74.333-74.333-74.333S175.667,209.059,175.667,250
			s33.392,74.333,74.333,74.333S324.333,290.941,324.333,250z M473,218.35v64.461c0,4.355-3.484,9.582-8.13,10.453l-53.718,8.13
			c-3.194,9.292-6.679,18.003-11.324,26.423c9.872,14.229,20.325,27.004,31.069,40.07c1.742,2.033,2.903,4.646,2.903,7.26
			s-0.871,4.646-2.613,6.678c-6.969,9.292-46.168,51.976-56.04,51.976c-2.613,0-5.227-1.161-7.55-2.613l-40.07-31.359
			c-8.421,4.355-17.422,8.13-26.423,11.034c-2.033,17.712-3.775,36.586-8.421,54.008c-1.161,4.646-5.227,8.13-10.453,8.13H217.77
			c-5.227,0-9.873-3.774-10.453-8.711l-8.13-53.427c-9.001-2.904-17.712-6.389-26.133-10.744l-40.941,31.069
			c-2.032,1.742-4.646,2.613-7.259,2.613s-5.227-1.161-7.259-3.194c-15.389-13.938-35.715-31.939-47.91-48.781
			c-1.452-2.032-2.033-4.355-2.033-6.678c0-2.613,0.871-4.646,2.323-6.679c9.872-13.356,20.616-26.133,30.488-39.78
			c-4.937-9.291-9.001-18.873-11.905-28.746l-53.137-7.84c-4.936-0.871-8.42-5.517-8.42-10.453v-64.46
			c0-4.355,3.484-9.582,7.84-10.453l54.008-8.13c2.904-9.292,6.678-18.002,11.324-26.713c-9.873-13.938-20.326-27.004-31.069-40.07
			c-1.742-2.033-2.904-4.355-2.904-6.969s1.162-4.646,2.613-6.679c6.969-9.582,46.168-51.975,56.041-51.975
			c2.613,0,5.227,1.162,7.549,2.904l40.07,31.069c8.42-4.355,17.422-8.13,26.423-11.034c2.032-17.712,3.774-36.586,8.42-54.008
			c1.162-4.646,5.227-8.13,10.453-8.13h64.461c5.227,0,9.872,3.775,10.453,8.711l8.13,53.427c9.002,2.903,17.713,6.388,26.133,10.743
			l41.232-31.069c1.742-1.742,4.355-2.613,6.969-2.613s5.227,1.162,7.259,2.904c15.39,14.228,35.715,32.23,47.91,49.362
			c1.452,1.742,2.032,4.065,2.032,6.388c0,2.613-0.871,4.646-2.322,6.678c-9.873,13.357-20.616,26.133-30.488,39.78
			c4.936,9.292,9.001,18.874,11.904,28.456l53.137,8.13C469.516,208.768,473,213.414,473,218.35z"/>
	</svg>

	<svg id="icon-tutorial" viewBox="0 0 500 500">
		<path fill="#1a73fb" d="M468.583,136.791c6.771,9.75,8.666,22.48,4.875,34.938l-74.479,245.376C392.208,440.125,368.374,458,345.083,458H95.104
			c-27.625,0-57.146-21.938-67.167-50.104c-4.333-12.188-4.333-24.104-0.541-34.396c0.541-5.417,1.625-10.833,1.896-17.333
			c0.271-4.334-2.167-7.854-1.625-11.104c1.083-6.5,6.771-11.104,11.104-18.417c8.125-13.541,17.333-35.479,20.312-49.562
			c1.354-5.146-1.354-11.104,0-15.708c1.354-5.146,6.5-8.938,9.208-13.812c7.312-12.459,16.792-36.562,18.146-49.291
			c0.542-5.688-2.166-11.918-0.541-16.25c1.896-6.23,7.854-8.938,11.916-14.355c6.5-8.938,17.334-34.666,18.959-49.02
			c0.541-4.605-2.167-9.209-1.354-14.084c1.083-5.146,7.583-10.562,11.917-16.791c11.375-16.793,13.541-53.896,47.938-44.146
			l-0.271,0.812c4.604-1.084,9.209-2.438,13.812-2.438h206.104c12.729,0,24.104,5.688,30.875,15.166
			c7.042,9.75,8.667,22.48,4.875,35.209L356.458,337.75c-12.729,41.708-19.771,50.917-54.167,50.917H66.937
			c-3.521,0-7.854,0.812-10.291,4.062c-2.167,3.25-2.438,5.688-0.271,11.646c5.417,15.708,24.104,18.958,39,18.958h249.979
			c10.021,0,21.667-5.688,24.646-15.438l81.25-267.312c1.625-5.146,1.625-10.562,1.354-15.438
			C458.833,127.584,464.521,131.375,468.583,136.791z M180.416,137.334c-1.625,4.875,1.083,8.666,5.958,8.666h164.667
			c4.604,0,9.75-3.791,11.375-8.666L368.104,120c1.625-4.875-1.083-8.666-5.958-8.666H197.479c-4.604,0-9.75,3.791-11.375,8.666
			L180.416,137.334z M157.937,206.666c-1.625,4.875,1.084,8.668,5.959,8.668h164.666c4.604,0,9.75-3.793,11.375-8.668l5.688-17.332
			c1.625-4.875-1.083-8.668-5.958-8.668H174.999c-4.604,0-9.75,3.793-11.375,8.668L157.937,206.666z"/>
	</svg>
</svg>